 <svg xmlns="http://www.w3.org/2000/svg" viewBox="0 0 24 24">
        <path
          d="M12.003 2.162c2.163.06 4.366-.147 6.497.302 1.754.346 3.001 1.948 3.171 3.687.289 2.987.13 5.999.154 8.997-.033 1.939.007 4.264-1.67 5.593-1.787 1.327-4.132.997-6.22 1.087-2.639-.041-5.295.127-7.92-.189-1.695-.202-3.213-1.457-3.548-3.16-.459-2.27-.237-4.613-.3-6.915.067-2.096-.161-4.244.368-6.294.44-1.818 2.248-2.902 4.03-2.995 1.808-.144 3.626-.102 5.438-.113zm0-2.162c-2.506.08-5.09-.218-7.524.519C2.234 1.17.612 3.229.257 5.506-.146 8.303.06 11.146.01 13.963c.034 2.566-.13 5.44 1.582 7.562 1.53 1.961 4.17 2.46 6.524 2.437 3.208.019 6.425.118 9.628-.106 2.3-.192 4.605-1.494 5.495-3.702 1.025-2.436.673-5.145.762-7.719-.065-2.483.174-5.013-.369-7.456-.494-2.263-2.343-4.112-4.605-4.607C16.731-.154 14.339.059 12.003 0zm0 5.836c-3.063-.07-5.884 2.477-6.129 5.53-.383 3.045 1.87 6.112 4.887 6.665 2.945.672 6.17-1.183 7.079-4.06 1.029-2.842-.417-6.274-3.166-7.528-.83-.4-1.75-.608-2.671-.607zm0 10.158c-2.365.077-4.388-2.282-3.953-4.607.286-2.342 2.911-3.982 5.142-3.21 2.27.63 3.504 3.462 2.416 5.553-.642 1.363-2.096 2.282-3.605 2.264zm6.404-11.84c-1.233-.068-1.938 1.633-1.018 2.457.824.919 2.525.215 2.457-1.018.017-.774-.664-1.456-1.439-1.44z"
          fill="black"
        ></path>
      </svg>