<svg width="32" height="32" viewBox="0 0 32 32" fill="none" xmlns="http://www.w3.org/2000/svg">
<circle cx="16" cy="16" r="16" fill="#F2F2F2"/>
<path d="M9.15944 12.64H6.69544C6.56744 12.64 6.46077 12.5973 6.37544 12.512C6.2901 12.4267 6.24744 12.32 6.24744 12.192V11.248C6.24744 11.1307 6.2901 11.0293 6.37544 10.944C6.46077 10.848 6.56744 10.8 6.69544 10.8H14.6954C14.8234 10.8 14.9301 10.848 15.0154 10.944C15.1008 11.0293 15.1434 11.1307 15.1434 11.248V12.192C15.1434 12.32 15.1008 12.4267 15.0154 12.512C14.9301 12.5973 14.8234 12.64 14.6954 12.64H12.2314C12.1141 12.64 12.0074 12.688 11.9114 12.784C11.8261 12.8693 11.7834 12.9707 11.7834 13.088V21.6C11.7834 21.7173 11.7408 21.824 11.6554 21.92C11.5701 22.0053 11.4634 22.048 11.3354 22.048H10.0554C9.92744 22.048 9.82077 22.0053 9.73544 21.92C9.6501 21.824 9.60744 21.7173 9.60744 21.6V13.088C9.60744 12.9707 9.55944 12.8693 9.46344 12.784C9.3781 12.688 9.27677 12.64 9.15944 12.64ZM15.2003 14H16.4003C16.5176 14 16.6136 14.0373 16.6883 14.112C16.7736 14.176 16.827 14.2613 16.8483 14.368L17.6323 18.704C17.6323 18.7573 17.6643 18.784 17.7283 18.784C17.771 18.784 17.803 18.7627 17.8243 18.72L19.1043 15.408C19.1363 15.312 19.1896 15.232 19.2643 15.168C19.3496 15.104 19.4403 15.072 19.5363 15.072H20.7843C20.891 15.072 20.9816 15.104 21.0563 15.168C21.1416 15.232 21.195 15.312 21.2163 15.408L22.3523 18.704C22.363 18.7467 22.3896 18.768 22.4323 18.768C22.4963 18.768 22.5336 18.7413 22.5443 18.688L23.4723 14.368C23.4936 14.2613 23.5416 14.176 23.6163 14.112C23.7016 14.0373 23.7976 14 23.9043 14H25.1043C25.2536 14 25.371 14.0587 25.4563 14.176C25.5523 14.2827 25.5843 14.4107 25.5523 14.56L23.7123 21.664C23.6803 21.76 23.6216 21.84 23.5363 21.904C23.4616 21.968 23.371 22 23.2643 22H21.9843C21.7496 22 21.6056 21.888 21.5523 21.664L20.2883 18.016C20.2563 17.952 20.2136 17.92 20.1603 17.92C20.107 17.92 20.0643 17.9467 20.0323 18L18.6243 21.68C18.5496 21.8933 18.4056 22 18.1923 22H16.9123C16.8056 22 16.7096 21.968 16.6243 21.904C16.539 21.84 16.4856 21.76 16.4643 21.664L14.7523 14.56C14.7203 14.4107 14.747 14.2827 14.8323 14.176C14.9283 14.0587 15.051 14 15.2003 14Z" fill="#00ADEF"/>
</svg>
