<svg width="24" height="24" viewBox="0 0 24 24" fill="none" xmlns="http://www.w3.org/2000/svg">
<path d="M5.63854 20.479C5.49541 20.6038 5.31974 20.6851 5.13215 20.7133C4.94457 20.7415 4.75286 20.7155 4.57953 20.6382C4.4062 20.5609 4.25844 20.4356 4.15361 20.2771C4.04878 20.1185 3.99122 19.9332 3.98769 19.743V17.5C3.4589 17.5 2.95177 17.2893 2.57786 16.9142C2.20396 16.5391 1.9939 16.0304 1.9939 15.5V8.5C1.9939 7.96957 2.20396 7.46086 2.57786 7.08579C2.95177 6.71071 3.4589 6.5 3.98769 6.5H14.9535C15.4823 6.5 15.9894 6.71071 16.3633 7.08579C16.7373 7.46086 16.9473 7.96957 16.9473 8.5V15.5C16.9473 16.0304 16.7373 16.5391 16.3633 16.9142C15.9894 17.2893 15.4823 17.5 14.9535 17.5H9.97204L5.63854 20.479ZM6.47992 17.386C6.57076 17.3855 6.65997 17.3617 6.73911 17.317L9.0868 15.679C9.25388 15.5624 9.45252 15.5 9.65603 15.5H13.9566C14.221 15.5 14.4746 15.3946 14.6615 15.2071C14.8485 15.0196 14.9535 14.7652 14.9535 14.5V9.5C14.9535 9.23478 14.8485 8.98043 14.6615 8.79289C14.4746 8.60536 14.221 8.5 13.9566 8.5H4.98458C4.72019 8.5 4.46662 8.60536 4.27967 8.79289C4.09272 8.98043 3.98769 9.23478 3.98769 9.5V14.5C3.98769 15.04 4.41535 15.482 4.98458 15.5C5.39331 15.516 5.68938 15.583 5.82596 15.726C5.95356 15.86 5.96054 16.086 5.98147 16.516C5.98447 16.579 5.98447 16.693 5.98147 16.886C5.98147 17.0186 6.03399 17.1458 6.12747 17.2396C6.22094 17.3333 6.34773 17.386 6.47992 17.386ZM17.9442 12.516C17.941 12.6393 17.941 12.7627 17.9442 12.886V12.516C17.9641 12.086 17.9721 11.86 18.0997 11.726C18.2363 11.583 18.5324 11.516 18.9411 11.5C19.5103 11.482 19.938 11.04 19.938 10.5V5.5C19.938 5.23478 19.833 4.98043 19.646 4.79289C19.4591 4.60536 19.2055 4.5 18.9411 4.5H9.96905C9.70466 4.5 9.4511 4.60536 9.26414 4.79289C9.07719 4.98043 8.97216 5.23478 8.97216 5.5H6.97837V4.5C6.97837 3.96957 7.18843 3.46086 7.56234 3.08579C7.93624 2.71071 8.44337 2.5 8.97216 2.5H19.938C20.4668 2.5 20.9739 2.71071 21.3478 3.08579C21.7217 3.46086 21.9318 3.96957 21.9318 4.5V11.5C21.9318 12.0304 21.7217 12.5391 21.3478 12.9142C20.9739 13.2893 20.4668 13.5 19.938 13.5V15.743C19.9345 15.9332 19.8769 16.1185 19.7721 16.2771C19.6672 16.4356 19.5195 16.5609 19.3462 16.6382C19.1728 16.7155 18.9811 16.7415 18.7935 16.7133C18.6059 16.6851 18.4303 16.6038 18.2871 16.479L17.9442 16.243V12.517V12.516Z" fill="#F2F2F2"/>
</svg>
