<svg width="194" height="61" viewBox="0 0 194 61" fill="none" xmlns="http://www.w3.org/2000/svg">
<g clip-path="url(#clip0)">
<path d="M0 36.6908V23.0502H2.93553V36.6908H0Z" fill="#010188"/>
<path d="M34.7477 36.6908V25.7657H31.6207L30.5039 23.0502H41.895L40.7782 25.7657H37.6513V36.6908H34.7477V36.6908Z" fill="#010188"/>
<path d="M68.3785 23.0502H79.4187L77.9509 25.7657H71.346V28.4812H77.5999V31.1967H71.346V33.9122H78.3338L79.4506 36.6276H68.4104V23.0502H68.3785Z" fill="#010188"/>
<path d="M105.87 23.0502H113.592L116.528 25.9551V32.1439H113.592L117.261 36.6908H113.209L109.54 32.1439H108.806V36.6908H105.87V23.0502ZM108.806 29.3968H113.592V27.2181L112.124 25.7657H108.806V29.3968Z" fill="#010188"/>
<path d="M155.679 33.4069V36.6908H152.743V34.8594H146.681V36.6908H143.745V33.4069L148.787 23.0502H150.637L155.679 33.4069ZM147.478 32.1439H151.882L149.68 27.597L147.478 32.1439Z" fill="#010188"/>
<path d="M182.96 36.6908V23.0502H185.895V24.8816L191.033 30.5336V23.0502H193.968V36.6908H191.033V34.8594L185.895 29.2074V36.6592H182.96V36.6908Z" fill="#010188"/>
<path d="M16.2411 21.2188H13.7842V39.4063H16.2411V21.2188Z" fill="#00ADEF"/>
<path d="M54.5306 15.1562H52.0737V45.4688H54.5306V15.1562Z" fill="#00ADEF"/>
<path d="M92.7882 5.93616H90.3313V54.6888H92.7882V5.93616Z" fill="#00ADEF"/>
<path d="M132.609 15.5352H130.152V45.0898H132.609V15.5352Z" fill="#010188"/>
<path d="M171.824 0H169.367V60.625H171.824V0Z" fill="#F0008C"/>
</g>
<defs>
<clipPath id="clip0">
<rect width="194" height="60.625" fill="white"/>
</clipPath>
</defs>
</svg>
