<svg width="32" height="32" viewBox="0 0 32 32" fill="none" xmlns="http://www.w3.org/2000/svg">
<circle cx="16" cy="16" r="16" fill="#010188"/>
<path d="M10.6067 10.848H11.9027C12.02 10.848 12.1214 10.8907 12.2067 10.976C12.3027 11.0613 12.3507 11.168 12.3507 11.296V21.632C12.3507 21.76 12.3027 21.8667 12.2067 21.952C12.1214 22.0373 12.02 22.08 11.9027 22.08H10.6067C10.4894 22.08 10.3827 22.0373 10.2867 21.952C10.2014 21.8667 10.1587 21.76 10.1587 21.632V11.296C10.1587 11.168 10.2014 11.0613 10.2867 10.976C10.3827 10.8907 10.4894 10.848 10.6067 10.848ZM21.9566 15.664C22.0312 15.76 22.0686 15.856 22.0686 15.952V21.616C22.0686 21.7227 22.0312 21.8133 21.9566 21.888C21.8819 21.9627 21.7912 22 21.6846 22H20.3406C20.2232 22 20.1272 21.9627 20.0526 21.888C19.9886 21.8133 19.9566 21.7227 19.9566 21.616V16.528C19.9566 16.4213 19.9192 16.3307 19.8446 16.256L19.5246 15.92C19.4499 15.8453 19.3539 15.808 19.2366 15.808H18.2126C18.0952 15.808 18.0046 15.8453 17.9406 15.92L16.9326 16.944C16.6659 17.2107 16.5326 17.5307 16.5326 17.904V21.616C16.5326 21.7227 16.4952 21.8133 16.4206 21.888C16.3459 21.9627 16.2499 22 16.1326 22H14.8046C14.6872 22 14.5912 21.9627 14.5166 21.888C14.4419 21.8133 14.4046 21.7227 14.4046 21.616V15.808H14.1966C14.0899 15.808 14.0046 15.776 13.9406 15.712C13.8766 15.6373 13.8446 15.5467 13.8446 15.44V14.352C13.8446 14.256 13.8766 14.176 13.9406 14.112C14.0046 14.0373 14.0899 14 14.1966 14H15.9726C16.0899 14 16.1859 14.0373 16.2606 14.112C16.3352 14.1867 16.3726 14.2827 16.3726 14.4C16.3726 14.5173 16.4099 14.6133 16.4846 14.688C16.5699 14.752 16.6606 14.784 16.7566 14.784C16.8632 14.784 16.9539 14.7467 17.0286 14.672L17.5886 14.112C17.6632 14.0373 17.7539 14 17.8606 14H20.1166C20.2126 14 20.3086 14.0373 20.4046 14.112L21.9566 15.664Z" fill="#F2F2F2"/>
</svg>
